<?xml version="1.0" standalone="no"?>
<!DOCTYPE svg PUBLIC "-//W3C//DTD SVG 1.1//EN" "http://www.w3.org/Graphics/SVG/1.1/DTD/svg11.dtd" >
<svg>
<metadata>
Created by FontForge 20090622 at Mon Oct 24 05:54:06 2016
 By deploy user
Copyright 1990 as an unpublished work by Bitstream Inc.  All rights reserved.  Confidential.
</metadata>
<defs>
<font id="BankGothicBT-Medium" horiz-adv-x="500" >
  <font-face 
    font-family="Bank Gothic"
    font-weight="500"
    font-stretch="normal"
    units-per-em="1000"
    panose-1="2 0 6 4 4 0 0 2 0 4"
    ascent="800"
    descent="-200"
    x-height="423"
    cap-height="516"
    bbox="-167 -236 1242 800"
    underline-thickness="70"
    underline-position="-48"
    unicode-range="U+0020-U+FB02"
  />
<missing-glyph horiz-adv-x="387" 
 />
    <glyph glyph-name=".notdef" horiz-adv-x="387" 
 />
    <glyph glyph-name=".null" horiz-adv-x="0" 
 />
    <glyph glyph-name="nonmarkingreturn" 
 />
    <glyph glyph-name="space" unicode=" " horiz-adv-x="387" 
 />
    <glyph glyph-name="space" unicode="&#xa0;" horiz-adv-x="387" 
 />
    <glyph glyph-name="question" unicode="?" horiz-adv-x="662" 
d="M264 209h103v27l175 102v82q0 50 -30.5 73t-93.5 23h-204q-108 0 -108 -106v-28l101 -16v65h230v-45l-173 -105v-72zM350 143h-72q-12 0 -20 -0.5t-12.5 -3.5t-6.5 -10t-2 -20v-75q0 -18 4.5 -26t20.5 -8h16h72q25 0 33 4.5t8 29.5v75q0 18 -4 26t-20 8h-17z" />
    <glyph glyph-name="at" unicode="@" horiz-adv-x="1000" 
d="M581 232q-14 -55 -51.5 -88t-84.5 -33q-44 0 -67.5 27.5t-23.5 79.5q0 46 12 86t33.5 69.5t50.5 46.5t63 17q38 0 63.5 -23t33.5 -67zM627 417q-35 73 -118 73q-49 0 -91.5 -20.5t-74 -56.5t-49.5 -85.5t-18 -107.5q0 -79 39 -120.5t114 -41.5q94 0 147 85v-9
q0 -77 98 -77q41 0 80.5 14t73.5 41q60 47 90.5 115t30.5 154q0 75 -33 138.5t-96 112.5q-50 38 -120.5 61t-154.5 23q-124 0 -223.5 -45t-170.5 -132q-49 -60 -74 -131.5t-25 -152.5q0 -192 149 -307q120 -91 307 -91q179 0 324 109l-27 40q-65 -45 -142.5 -69t-160.5 -24
q-77 0 -142.5 21t-113.5 57q-64 49 -94 112.5t-30 150.5q0 110 51 200t145 146t223 56q77 0 139 -21t106 -58.5t68 -90t24 -114.5t-22.5 -115.5t-60.5 -89.5q-26 -25 -52.5 -37.5t-49.5 -12.5q-49 0 -49 46q0 13 4 29l71 281h-64z" />
    <glyph glyph-name="A" unicode="A" horiz-adv-x="771" 
d="M33 0h120l60 113h327l62 -113h135l-296 516h-116zM264 206l115 210l111 -210h-226z" />
    <glyph glyph-name="B" unicode="B" horiz-adv-x="794" 
d="M132 0h410q152 0 152 101v66q0 42 -24 67.5t-69 31.5q43 5 66 27t23 60v63q0 54 -28 77t-88 23h-442v-516zM524 224q31 0 44.5 -8.5t13.5 -37.5v-39q0 -29 -13.5 -37.5t-44.5 -8.5h-274v131h274zM524 432q28 0 41.5 -7t13.5 -30v-49q0 -23 -13.5 -30t-41.5 -7h-274v123
h274z" />
    <glyph glyph-name="C" unicode="C" horiz-adv-x="801" 
d="M565 424v-98l120 19v49q0 36 -6.5 60t-21.5 37.5t-39.5 19t-60.5 5.5h-308q-36 0 -60.5 -5.5t-39.5 -19t-21.5 -37.5t-6.5 -60v-272q0 -36 6.5 -60t21.5 -37.5t39.5 -19t60.5 -5.5h308q36 0 60.5 5.5t39.5 19t21.5 37.5t6.5 60v61l-120 25v-111h-324v327h324z" />
    <glyph glyph-name="D" unicode="D" horiz-adv-x="847" 
d="M132 0h301q69 0 121.5 8.5t90.5 31.5q54 33 84 90.5t30 130.5q0 121 -74.5 188t-220.5 67h-332v-516zM252 97v327h213q85 0 127.5 -41t42.5 -120q0 -48 -14 -80t-42.5 -51t-71.5 -27t-100 -8h-155z" />
    <glyph glyph-name="E" unicode="E" horiz-adv-x="755" 
d="M132 0h533v97h-413v128h238v88h-238v115h408v88h-528v-516z" />
    <glyph glyph-name="F" unicode="F" horiz-adv-x="671" 
d="M132 0h120v196h217v94h-217v136h402v90h-522v-516z" />
    <glyph glyph-name="G" unicode="G" horiz-adv-x="855" 
d="M616 424v-58l117 21v12q0 35 -7 57.5t-22 36t-39.5 18.5t-59.5 5h-356q-36 0 -60.5 -5.5t-39.5 -19t-21.5 -37.5t-6.5 -60v-272q0 -36 6.5 -60t21.5 -37.5t39.5 -19t60.5 -5.5h356q36 0 60.5 5.5t39.5 19t21.5 37.5t6.5 60v178h-313v-88h196v-115h-375v327h375z" />
    <glyph glyph-name="H" unicode="H" horiz-adv-x="880" 
d="M132 0h120v222h375v-222h121v516h-121v-200h-375v200h-120v-516z" />
    <glyph glyph-name="I" unicode="I" horiz-adv-x="384" 
d="M132 0h120v516h-120v-516z" />
    <glyph glyph-name="J" unicode="J" horiz-adv-x="667" 
d="M207 0h221q36 0 60.5 5.5t39.5 19t21.5 37.5t6.5 60v394h-120v-419h-236v155l-121 -23v-107q0 -36 6.5 -60t21.5 -37.5t39.5 -19t60.5 -5.5z" />
    <glyph glyph-name="K" unicode="K" horiz-adv-x="794" 
d="M132 0h121v227l309 -227h193l-384 273l342 243h-174l-286 -215v215h-121v-516z" />
    <glyph glyph-name="L" unicode="L" horiz-adv-x="683" 
d="M132 0h507v97h-387v419h-120v-516z" />
    <glyph glyph-name="M" unicode="M" horiz-adv-x="926" 
d="M131 0h97v319q0 24 -3 55q6 -15 14 -28t17 -25l194 -259h24l194 258q7 9 14.5 23t15.5 31q-2 -20 -3 -33.5t-1 -21.5v-319h111v516h-96l-238 -312l-243 312h-97v-516z" />
    <glyph glyph-name="N" unicode="N" horiz-adv-x="869" 
d="M131 0h108v279q0 11 -1 31.5t-4 50.5q11 -12 21.5 -22l21.5 -20l379 -319h82v516h-108v-271q0 -12 1.5 -34.5l3.5 -54.5q-14 16 -28.5 29.5t-30.5 26.5l-363 304h-82v-516z" />
    <glyph glyph-name="O" unicode="O" horiz-adv-x="878" 
d="M241 97v327h396v-327h-396zM121 394v-272q0 -36 6.5 -60t21.5 -37.5t39.5 -19t60.5 -5.5h380q36 0 60.5 5.5t39.5 19t21.5 37.5t6.5 60v272q0 36 -6.5 60t-21.5 37.5t-39.5 19t-60.5 5.5h-380q-36 0 -60.5 -5.5t-39.5 -19t-21.5 -37.5t-6.5 -60z" />
    <glyph glyph-name="P" unicode="P" horiz-adv-x="743" 
d="M132 0h118v201h324q60 0 88 23t28 77v115q0 54 -28 77t-88 23h-442v-516zM520 427q28 0 41 -7.5t13 -33.5v-55q0 -26 -13 -33.5t-41 -7.5h-270v137h270z" />
    <glyph glyph-name="Q" unicode="Q" horiz-adv-x="878" 
d="M241 97v327h396v-327h-110l-70 147l-87 -35l48 -112h-177zM121 394v-272q0 -36 6.5 -60t21.5 -37.5t39.5 -19t60.5 -5.5h212l58 -133h119l-65 133h56q36 0 60.5 5.5t39.5 19t21.5 37.5t6.5 60v272q0 36 -6.5 60t-21.5 37.5t-39.5 19t-60.5 5.5h-380q-36 0 -60.5 -5.5
t-39.5 -19t-21.5 -37.5t-6.5 -60z" />
    <glyph glyph-name="R" unicode="R" horiz-adv-x="802" 
d="M132 0h118v195h114l208 -195h172l-238 195h68q60 0 88 23t28 77v121q0 54 -28 77t-88 23h-442v-516zM520 427q28 0 41 -7.5t13 -33.5v-62q0 -26 -13 -33.5t-41 -7.5h-270v144h270z" />
    <glyph glyph-name="S" unicode="S" horiz-adv-x="809" 
d="M579 426v-59l106 25v11q0 33 -7 55t-22.5 35t-39.5 18t-59 5h-293q-36 0 -60.5 -5.5t-39.5 -19t-21.5 -37.5t-6.5 -60v-57q0 -36 6.5 -60t21.5 -37.5t39.5 -19t60.5 -5.5h322v-118h-365v61l-106 -22v-14q0 -36 6.5 -60t21.5 -37.5t40 -19t61 -5.5h319q36 0 61 5.5t40 19
t21.5 37.5t6.5 60v71q0 36 -6.5 60t-21.5 37.5t-40 19t-61 5.5h-322v111h338z" />
    <glyph glyph-name="T" unicode="T" horiz-adv-x="625" 
d="M372 424h238v92h-595v-92h237v-424h120v424z" />
    <glyph glyph-name="U" unicode="U" horiz-adv-x="846" 
d="M252 516h-120v-394q0 -36 6.5 -60t21.5 -37.5t39.5 -19t60.5 -5.5h326q36 0 60.5 5.5t39.5 19t21.5 37.5t6.5 60v394h-120v-419h-342v419z" />
    <glyph glyph-name="V" unicode="V" horiz-adv-x="681" 
d="M306 0h83l284 516h-120l-199 -373l-209 373h-137z" />
    <glyph glyph-name="W" unicode="W" horiz-adv-x="926" 
d="M238 0h83l144 357l142 -357h81l199 516h-107l-125 -346l-140 346h-84l-137 -346l-131 346h-124z" />
    <glyph glyph-name="X" unicode="X" horiz-adv-x="718" 
d="M53 0h142l174 200l189 -200h163l-278 279l225 237h-138l-157 -175l-165 175h-159l249 -251z" />
    <glyph glyph-name="Y" unicode="Y" horiz-adv-x="672" 
d="M276 0h121v234l267 282h-141l-178 -198l-177 198h-160l268 -285v-231z" />
    <glyph glyph-name="Z" unicode="Z" horiz-adv-x="682" 
d="M61 0h554v97h-366l366 368v51h-518v-92h325l-361 -368v-56z" />
    <glyph glyph-name="bracketleft" unicode="[" horiz-adv-x="331" 
d="M315 -16v74h-125v403h125v71h-221v-548h221z" />
    <glyph glyph-name="backslash" unicode="\" horiz-adv-x="278" 
d="M42 532h-66l262 -548h64z" />
    <glyph glyph-name="bracketright" unicode="]" horiz-adv-x="331" 
d="M16 -16h221v548h-221v-71h125v-403h-125v-74z" />
    <glyph glyph-name="asciicircum" unicode="^" horiz-adv-x="1000" 
d="M545 712h-91l-249 -272h88l207 205l206 -205h88z" />
    <glyph glyph-name="underscore" unicode="_" 
d="M500 -166h-500v-70h500v70z" />
    <glyph glyph-name="quoteleft" unicode="&#x2018;" horiz-adv-x="331" 
d="M130 228h72q13 0 21 0.5t12.5 4t6 11t1.5 21.5v62q0 19 -4.5 28t-19.5 9h-17h-40l85 152h-59l-99 -148v-103q0 -19 4.5 -28t19.5 -9h17z" />
    <glyph glyph-name="a" unicode="a" horiz-adv-x="646" 
d="M230 170l95 176l99 -176h-194zM30 0h103l53 93h280l53 -93h116l-255 423h-99z" />
    <glyph glyph-name="b" unicode="b" horiz-adv-x="657" 
d="M427 184q26 0 38 -7.5t12 -30.5v-32q0 -23 -12 -30.5t-38 -7.5h-231v108h231zM427 354q24 0 35 -5.5t11 -24.5v-40q0 -19 -11.5 -24.5t-34.5 -5.5h-231v100h231zM94 0h352q131 0 131 83v54q0 32 -19.5 53.5t-55.5 27.5q35 6 53.5 24.5t18.5 47.5v51q0 45 -24.5 63.5
t-75.5 18.5h-380v-423z" />
    <glyph glyph-name="c" unicode="c" horiz-adv-x="644" 
d="M465 345v-78l104 15v41q0 30 -5.5 49.5t-18.5 30.5t-34 15.5t-53 4.5h-264q-31 0 -52.5 -4.5t-34 -16t-18 -30.5t-5.5 -49v-223q0 -29 5 -48.5t18 -31t34 -16t53 -4.5h264q32 0 53 4.5t34 16t18.5 30.5t5.5 49v50l-104 21v-90h-278v264h278z" />
    <glyph glyph-name="d" unicode="d" horiz-adv-x="694" 
d="M94 0h259q280 0 280 213q0 99 -64 154.5t-190 55.5h-285v-423zM198 79v268h182q74 0 110.5 -31.5t36.5 -97.5q0 -41 -12 -68t-36.5 -42.5t-61.5 -22t-86 -6.5h-133z" />
    <glyph glyph-name="e" unicode="e" horiz-adv-x="608" 
d="M94 0h459v79h-355v104h204v73h-204v92h350v75h-454v-423z" />
    <glyph glyph-name="f" unicode="f" horiz-adv-x="550" 
d="M94 0h104v158h186v79h-186v110h345v76h-449v-423z" />
    <glyph glyph-name="g" unicode="g" horiz-adv-x="692" 
d="M509 345v-45l101 17v11q0 57 -25 76t-85 19h-306q-31 0 -52 -4.5t-34 -15.5t-18.5 -30.5t-5.5 -49.5v-223q0 -30 5.5 -49t18 -30.5t34 -16t52.5 -4.5h306q32 0 53 4.5t33.5 16t18 30.5t5.5 49v146h-269v-75h168v-90h-322v264h322z" />
    <glyph glyph-name="h" unicode="h" horiz-adv-x="718" 
d="M94 0h104v178h322v-178h103v423h-103v-161h-322v161h-104v-423z" />
    <glyph glyph-name="i" unicode="i" horiz-adv-x="291" 
d="M94 0h103v423h-103v-423z" />
    <glyph glyph-name="j" unicode="j" horiz-adv-x="560" 
d="M166 0h188q32 0 53 4.5t34 16t18.5 30.5t5.5 49v323h-104v-344h-202v128l-104 -19v-88q0 -30 5.5 -49t18.5 -30.5t34.5 -16t52.5 -4.5z" />
    <glyph glyph-name="k" unicode="k" horiz-adv-x="620" 
d="M94 0h104v191l266 -191h163l-325 227l292 196h-149l-247 -171v171h-104v-423z" />
    <glyph glyph-name="l" unicode="l" horiz-adv-x="552" 
d="M94 0h436v79h-332v344h-104v-423z" />
    <glyph glyph-name="m" unicode="m" horiz-adv-x="767" 
d="M94 0h83v284l191 -233h20l189 240v-291h96v423h-83l-206 -251l-207 251h-83v-423z" />
    <glyph glyph-name="n" unicode="n" horiz-adv-x="712" 
d="M94 0h94v285l358 -285h71v423h-93v-281l-359 281h-71v-423z" />
    <glyph glyph-name="o" unicode="o" horiz-adv-x="715" 
d="M84 323v-223q0 -30 5.5 -49.5t18 -30.5t34 -15.5t52.5 -4.5h327q31 0 52 4.5t34 15.5t18.5 30.5t5.5 49.5v223q0 30 -5.5 49.5t-18.5 31t-34 15.5t-52 4h-327q-31 0 -52 -4t-34 -15.5t-18.5 -31t-5.5 -49.5zM187 81v264h341v-264h-341z" />
    <glyph glyph-name="p" unicode="p" horiz-adv-x="628" 
d="M431 350q23 0 35 -6.5t12 -27.5v-44q0 -21 -12 -27.5t-35 -6.5h-235v112h235zM94 0h102v165h279q51 0 75 18.5t24 63.5v94q0 45 -24 63.5t-75 18.5h-381v-423z" />
    <glyph glyph-name="q" unicode="q" horiz-adv-x="715" 
d="M187 81v264h341v-264h-98l-58 119l-74 -28l44 -91h-155zM84 323v-222q0 -30 5.5 -49t18 -30.5t34 -16t52.5 -4.5h183l48 -109h103l-57 109h50q31 0 52 4.5t34 16t18.5 30.5t5.5 49v222q0 31 -5.5 50.5t-18.5 30.5t-34 15t-52 4h-327q-31 0 -52 -4t-34 -15t-18.5 -30.5
t-5.5 -50.5z" />
    <glyph glyph-name="r" unicode="r" horiz-adv-x="650" 
d="M94 0h102v160h97l177 -160h148l-201 160h58q51 0 75 18.5t24 62.5v100q0 45 -24 63.5t-75 18.5h-381v-423zM431 350q23 0 35 -6.5t12 -27.5v-49q0 -21 -12 -27.5t-35 -6.5h-235v117h235z" />
    <glyph glyph-name="s" unicode="s" horiz-adv-x="663" 
d="M485 347v-45l89 19v10q0 28 -6.5 45.5t-20 28t-34.5 14.5t-50 4h-251q-31 0 -52.5 -4.5t-34.5 -15.5t-18.5 -30.5t-5.5 -49.5v-47q0 -30 5.5 -49.5t18.5 -30.5t34.5 -15.5t52.5 -4.5h274v-97h-311v50l-92 -17v-12q0 -30 5.5 -49t18.5 -30.5t34.5 -16t52.5 -4.5h275
q32 0 53 4.5t33.5 16t18 30.5t5.5 49v58q0 30 -5.5 49.5t-18 30.5t-33.5 15.5t-53 4.5h-275v89h291z" />
    <glyph glyph-name="t" unicode="t" horiz-adv-x="590" 
d="M346 347h205v76h-512v-76h204v-347h103v347z" />
    <glyph glyph-name="u" unicode="u" horiz-adv-x="689" 
d="M197 423h-103v-323q0 -30 5.5 -49t18 -30.5t34 -16t52.5 -4.5h280q32 0 53 4.5t34 16t18.5 30.5t5.5 49v323h-104v-344h-294v344z" />
    <glyph glyph-name="v" unicode="v" horiz-adv-x="632" 
d="M292 0h71l245 423h-107l-169 -307l-179 307h-117z" />
    <glyph glyph-name="w" unicode="w" horiz-adv-x="789" 
d="M208 0h71l124 299l122 -299h70l170 423h-93l-109 -295l-118 295h-71l-119 -295l-111 295h-108z" />
    <glyph glyph-name="x" unicode="x" horiz-adv-x="638" 
d="M51 0h122l149 158l162 -158h141l-238 229l193 194h-119l-134 -137l-142 137h-138l213 -206z" />
    <glyph glyph-name="y" unicode="y" horiz-adv-x="593" 
d="M254 0h103v192l230 231h-121l-153 -158l-151 158h-139l231 -233v-190z" />
    <glyph glyph-name="z" unicode="z" horiz-adv-x="616" 
d="M70 0h477v78h-316l316 303v42h-446v-76h279l-310 -301v-46z" />
    <glyph glyph-name="braceleft" unicode="{" 
d="M423 648v73h-18q-45 0 -78 -5t-58 -20q-33 -20 -41 -56.5t-8 -93.5v-120q0 -36 -6 -60.5t-19.5 -40.5t-36 -23t-54.5 -7q-5 0 -10.5 0.5t-11.5 0.5v-73q5 0 10.5 0.5t10.5 0.5q65 0 91 -30.5t26 -101.5v-120q0 -57 8 -93.5t41 -56.5q24 -15 56.5 -19.5t76.5 -4.5h21v72
h-19q-32 0 -51.5 5.5t-30.5 18.5t-14.5 34.5t-3.5 53.5v118q0 35 -4 61t-14.5 45.5t-29.5 32t-50 20.5q30 8 49.5 20.5t30 32t14.5 45.5t4 61v118q0 32 4 53.5t14.5 34.5t30 18.5t50.5 5.5h20z" />
    <glyph glyph-name="bar" unicode="|" 
d="M287 764h-73v-1000h73v1000z" />
    <glyph glyph-name="braceright" unicode="}" 
d="M281 546q0 57 -8 93.5t-41 56.5q-24 15 -57.5 20t-78.5 5h-18v-73h19q32 0 51.5 -5.5t30 -18.5t14.5 -34.5t4 -53.5v-118q0 -35 4 -61t14.5 -45.5t30 -32t49.5 -20.5q-30 -8 -49.5 -20.5t-30 -32t-14.5 -45.5t-4 -61v-117q0 -32 -4 -54t-14.5 -35t-30 -18.5t-51.5 -5.5
h-19v-72h21q44 0 76.5 4.5t56.5 19.5q33 20 41 56.5t8 93.5v120q0 71 25.5 101.5t91.5 30.5q5 0 10.5 -0.5t10.5 -0.5v73q-6 0 -11.5 -0.5t-10.5 -0.5q-64 0 -90 30t-26 101v120z" />
    <glyph glyph-name="asciitilde" unicode="~" horiz-adv-x="833" 
d="M747 300v76q-52 -37 -97 -56.5t-92 -19.5q-35 0 -69 11.5l-71 24.5q-34 12 -68.5 21t-73.5 9q-86 0 -189 -70v-76q54 38 98.5 57.5t89.5 19.5q38 0 72 -10t69 -22l69 -23t72 -11q48 0 94 17t96 52z" />
    <glyph glyph-name="exclamdown" unicode="&#xa1;" horiz-adv-x="384" 
d="M230 306h-79l-38 -306h155zM155 374h71q25 0 33.5 4.5t8.5 29.5v74q0 18 -4.5 26t-20.5 8h-17h-71q-12 0 -20.5 -0.5t-13 -3.5t-6.5 -10t-2 -20v-74q0 -18 4.5 -26t20.5 -8h17z" />
    <glyph glyph-name="cent" unicode="&#xa2;" horiz-adv-x="773" 
d="M268 -101h54l35 101h134q43 0 62 13t19 50v65l-88 21v-68h-100l65 186h35v-54l88 14v45q0 24 -4 38.5t-15 22.5t-29.5 10.5t-47.5 2.5l28 82h-54l-28 -82h-126q-28 0 -46.5 -4t-29 -13t-15 -24t-4.5 -38v-186q0 -42 15.5 -61.5t60.5 -19.5h26zM331 81h-35v186h99z" />
    <glyph glyph-name="sterling" unicode="&#xa3;" horiz-adv-x="773" 
d="M105 -12h9q41 0 73.5 13.5t65.5 42.5q93 -27 167 -39.5t131 -12.5q166 0 166 127v37l-98 18v-20q0 -41 -19 -53t-72 -12q-49 0 -107.5 8.5t-124.5 26.5q8 23 12 48.5t5 54.5h142v79h-146q-4 23 -4 48q0 24 4 39.5t13.5 24t26.5 12t42 3.5h114q36 0 53.5 -9.5t17.5 -41.5
v-30l101 17v47q0 48 -34 74t-103 26h-175q-85 0 -122.5 -33.5t-37.5 -110.5q0 -15 1 -31.5t3 -34.5h-105v-79h111q1 -11 1.5 -17.5t0.5 -10.5q0 -54 -25.5 -78.5t-86.5 -29.5v-103z" />
    <glyph glyph-name="fraction" unicode="&#x2215;" horiz-adv-x="167" 
d="M333 532h-64l-436 -548h65z" />
    <glyph glyph-name="yen" unicode="&#xa5;" horiz-adv-x="773" 
d="M570 516l-174 -203l-175 203h-158l136 -144h-109v-65h170l72 -77h-242v-65h242v-165h111v165h241v65h-241l72 77h169v65h-109l135 144h-140z" />
    <glyph glyph-name="florin" unicode="&#x192;" horiz-adv-x="773" 
d="M386 6l63 323h120v58h-108l20 99q6 32 18 46.5t39 14.5q34 0 34 -34v-4l-2 -32l99 14l-1 34q-1 98 -119 98q-43 0 -72.5 -5.5t-49 -20.5t-31.5 -41t-20 -66l-20 -103h-105v-58h93l-62 -316q-6 -31 -18 -46t-36 -15q-21 0 -29 7t-8 27v4l1 39l-98 -23v-34q0 -100 131 -100
q41 0 68.5 7t45.5 23t29 41.5t18 62.5z" />
    <glyph glyph-name="section" unicode="&#xa7;" 
d="M132 263q0 16 11.5 27.5t33.5 11.5q17 0 51 -9t74 -30q70 -37 70 -69q0 -17 -13.5 -27.5t-36.5 -10.5q-19 0 -54.5 9.5t-76.5 32.5q-59 32 -59 65zM76 -21q35 -32 81.5 -50.5t94.5 -18.5q33 0 60.5 9t47 24.5t30 36t10.5 44.5q0 30 -16.5 56t-45.5 40q50 10 77 37t27 65
q0 27 -11.5 46.5t-33 36t-52.5 31t-70 29.5q-42 17 -64.5 29.5t-22.5 35.5q0 18 15.5 30t44.5 12q22 0 47.5 -12t51.5 -36l58 51q-33 29 -74 44t-86 15q-65 0 -102.5 -30.5t-37.5 -76.5q0 -54 56 -89q-48 -8 -74 -34.5t-26 -66.5q0 -25 10 -44.5t29.5 -36t48.5 -31.5t67 -31
l42 -17.5t31 -15.5t19.5 -17t6.5 -21q0 -19 -17.5 -32t-46.5 -13q-61 0 -117 55z" />
    <glyph glyph-name="currency" unicode="&#xa4;" horiz-adv-x="606" 
d="M179 595l-100 100l-40 -39l101 -101q-41 -55 -41 -123q0 -40 12 -71t29 -52l-101 -100l40 -40l100 100q56 -42 125 -42q37 0 67.5 11t56.5 31l100 -100l40 40l-100 100q21 28 30.5 58.5t9.5 64.5q0 70 -40 123l100 101l-40 39l-100 -100q-55 42 -125 42q-68 0 -124 -42z
M452 433q0 -31 -11.5 -58t-31.5 -47t-47 -32t-58 -12t-58 12t-47 32t-31.5 47t-11.5 58q0 30 11.5 57t31.5 47.5t47 32t58 11.5t58 -11.5t47 -32t31.5 -47.5t11.5 -57z" />
    <glyph glyph-name="quotesingle" unicode="'" horiz-adv-x="155" 
d="M112 701h-68v-271h68v271z" />
    <glyph glyph-name="quotedblleft" unicode="&#x201c;" horiz-adv-x="579" 
d="M130 228h72q13 0 21 0.5t12.5 4t6 11t1.5 21.5v62q0 19 -4.5 28t-19.5 9h-17h-40l85 152h-59l-99 -148v-103q0 -19 4.5 -28t19.5 -9h17zM378 228h71q13 0 21 0.5t12.5 4t6.5 11t2 21.5v62q0 19 -4.5 28t-19.5 9h-18h-39l85 152h-60l-99 -148v-103q0 -19 5 -28t20 -9h17z
" />
    <glyph glyph-name="guillemotleft" unicode="&#xab;" horiz-adv-x="562" 
d="M269 64l-114 148l114 147h-89l-118 -147l118 -148h89zM500 64l-114 148l114 147h-89l-118 -147l118 -148h89z" />
    <glyph glyph-name="guilsinglleft" unicode="&#x2039;" horiz-adv-x="331" 
d="M269 64l-114 148l114 147h-89l-118 -147l118 -148h89z" />
    <glyph glyph-name="guilsinglright" unicode="&#x203a;" horiz-adv-x="331" 
d="M62 359l114 -147l-114 -148h89l118 148l-118 147h-89z" />
    <glyph glyph-name="fi" unicode="&#xfb01;" horiz-adv-x="550" 
d="M94 0h104v158h186v79h-186v110h345v76h-449v-423zM644 0h103v423h-103v-423z" />
    <glyph glyph-name="fl" unicode="&#xfb02;" horiz-adv-x="550" 
d="M94 0h104v158h186v79h-186v110h345v76h-449v-423zM644 0h436v79h-332v344h-104v-423z" />
    <glyph glyph-name="endash" unicode="&#x2013;" 
d="M0 231h500v70h-500v-70z" />
    <glyph glyph-name="dagger" unicode="&#x2020;" 
d="M236 -106h27q4 85 14.5 158t26.5 133q-13 32 -23 64.5t-18 67.5l165 -37v106l-165 -35l41 165h-108l40 -165l-165 35v-106l165 37q-8 -35 -17.5 -67.5t-22.5 -64.5q16 -60 26 -133t14 -158z" />
    <glyph glyph-name="daggerdbl" unicode="&#x2021;" 
d="M304 208l-41 109l165 -37v106l-165 -35l41 165h-108l40 -165l-165 35v-106l165 37l-40 -109l40 -109l-165 38v-106l165 34l-40 -165h108l-41 165l165 -34v106l-165 -38z" />
    <glyph glyph-name="periodcentered" unicode="&#xb7;" horiz-adv-x="331" 
d="M84 258q0 -33 24 -57.5t57 -24.5q17 0 31.5 6.5t26 18t18 26.5t6.5 31q0 35 -23.5 58t-58.5 23t-58 -23t-23 -58z" />
    <glyph glyph-name="periodcentered" unicode="&#x22c5;" horiz-adv-x="331" 
d="M84 258q0 -33 24 -57.5t57 -24.5q17 0 31.5 6.5t26 18t18 26.5t6.5 31q0 35 -23.5 58t-58.5 23t-58 -23t-23 -58z" />
    <glyph glyph-name="paragraph" unicode="&#xb6;" 
d="M468 680v42h-244q-44 0 -79.5 -12.5t-60.5 -35t-38.5 -53.5t-13.5 -69q0 -73 48.5 -119.5t133.5 -50.5v-382h54v680h87v-680h54v680h59z" />
    <glyph glyph-name="bullet" unicode="&#x2022;" horiz-adv-x="590" 
d="M150 372q0 -30 11.5 -56.5t31 -46t45.5 -31t56 -11.5t56.5 11.5t46 31.5t31 46t11.5 56t-11.5 56.5t-31 46t-45.5 30.5t-56 11t-56.5 -11t-46 -30.5t-31 -46t-11.5 -56.5z" />
    <glyph glyph-name="quotesinglbase" unicode="&#x201a;" horiz-adv-x="331" 
d="M201 155h-72q-13 0 -21 -0.5t-12.5 -4t-6 -11t-1.5 -21.5v-62q0 -19 4.5 -28t19.5 -9h17h40l-85 -152h59l99 148v103q0 19 -4.5 28t-19.5 9h-17z" />
    <glyph glyph-name="quotedblbase" unicode="&#x201e;" horiz-adv-x="579" 
d="M201 155h-72q-13 0 -21 -0.5t-12.5 -4t-6 -11t-1.5 -21.5v-62q0 -19 4.5 -28t19.5 -9h17h40l-85 -152h59l99 148v103q0 19 -4.5 28t-19.5 9h-17zM448 155h-71q-13 0 -21 -0.5t-12.5 -4t-6.5 -11t-2 -21.5v-62q0 -19 5 -28t20 -9h17h39l-85 -152h60l99 148v103
q0 19 -4.5 28t-19.5 9h-18z" />
    <glyph glyph-name="quotedblright" unicode="&#x201d;" horiz-adv-x="579" 
d="M201 516h-72q-13 0 -21 -0.5t-12.5 -4t-6 -11t-1.5 -21.5v-62q0 -19 4.5 -28t19.5 -9h17h40l-85 -152h59l99 148v103q0 19 -4.5 28t-19.5 9h-17zM448 516h-71q-13 0 -21 -0.5t-12.5 -4t-6.5 -11t-2 -21.5v-62q0 -19 5 -28t20 -9h17h39l-85 -152h60l99 148v103
q0 19 -4.5 28t-19.5 9h-18z" />
    <glyph glyph-name="guillemotright" unicode="&#xbb;" horiz-adv-x="562" 
d="M62 359l114 -147l-114 -148h89l118 148l-118 147h-89zM294 359l113 -147l-113 -148h88l118 148l-118 147h-88z" />
    <glyph glyph-name="ellipsis" unicode="&#x2026;" horiz-adv-x="1000" 
d="M202 155h-71q-13 0 -21 -0.5t-12.5 -4t-6.5 -11t-2 -21.5v-81q0 -19 4.5 -28t19.5 -9h18h71q13 0 21 0.5t12.5 4t6.5 11t2 21.5v81q0 19 -4.5 28t-19.5 9h-18zM535 155h-71q-13 0 -21 -0.5t-12.5 -4t-6.5 -11t-2 -21.5v-81q0 -19 4.5 -28t19.5 -9h18h71q13 0 21 0.5
t12.5 4t6.5 11t2 21.5v81q0 19 -4.5 28t-19.5 9h-18zM869 155h-71q-13 0 -21 -0.5t-12.5 -4t-6.5 -11t-2 -21.5v-81q0 -19 4.5 -28t19.5 -9h18h71q13 0 21 0.5t12.5 4t6.5 11t2 21.5v81q0 19 -4.5 28t-19.5 9h-18z" />
    <glyph glyph-name="perthousand" unicode="&#x2030;" horiz-adv-x="1160" 
d="M44 380q0 -31 12.5 -59.5t33.5 -49.5t49 -33.5t59 -12.5t58.5 12.5t48.5 33.5t33.5 49.5t12.5 59.5q0 32 -12 59.5t-32.5 48t-48.5 32.5t-60 12t-60 -11.5t-49 -32t-33 -48.5t-12 -60zM112 378q0 35 25 60.5t60 25.5q18 0 33.5 -7t27 -18.5t18.5 -27t7 -33.5
q0 -35 -25 -60t-61 -25q-18 0 -33.5 7t-27 18.5t-18 27t-6.5 32.5zM649 532h-65l-435 -548h65zM447 138q0 -31 12 -59t33 -49t49 -33.5t59 -12.5t59 12.5t49 33.5t33.5 49t12.5 59q0 32 -12 60t-33 48.5t-49 32.5t-60 12t-60 -12t-48.5 -32.5t-32.5 -48.5t-12 -60zM515 137
q0 35 25 60.5t60 25.5q18 0 33.5 -7t27 -18.5t18.5 -27t7 -33.5q0 -35 -25 -60t-61 -25q-18 0 -33.5 7t-27 18.5t-18 27t-6.5 32.5zM808 138q0 -31 12.5 -59t33.5 -49t49 -33.5t59 -12.5t58.5 12.5t48.5 33.5t33.5 49t12.5 59q0 32 -12 60t-32.5 48.5t-48.5 32.5t-60 12
t-60 -12t-49 -32.5t-33 -48.5t-12 -60zM876 137q0 35 25 60.5t60 25.5q18 0 33.5 -7t27 -18.5t18.5 -27t7 -33.5q0 -35 -25 -60t-61 -25q-18 0 -33.5 7t-27 18.5t-18 27t-6.5 32.5z" />
    <glyph glyph-name="questiondown" unicode="&#xbf;" horiz-adv-x="662" 
d="M298 374h71q25 0 33.5 4.5t8.5 29.5v74q0 18 -4.5 26t-20.5 8h-17h-71q-12 0 -20.5 -0.5t-13 -3.5t-6.5 -10t-2 -20v-74q0 -18 4.5 -26t20.5 -8h17zM383 307h-102v-27l-175 -102v-81q0 -97 123 -97h204q108 0 108 106v28l-100 16v-64h-231v45l173 104v72z" />
    <glyph glyph-name="grave" unicode="`" 
d="M322 478l-100 169h-108l144 -169h64z" />
    <glyph glyph-name="acute" unicode="&#xb4;" 
d="M178 478h64l144 169h-108z" />
    <glyph glyph-name="circumflex" unicode="&#x2c6;" 
d="M105 477h63l82 103l81 -103h64l-92 170h-106z" />
    <glyph glyph-name="Iacute" unicode="&#xcd;" horiz-adv-x="384" 
d="M132 0h120v516h-120v-516zM121 571h64l144 169h-108z" />
    <glyph glyph-name="Icircumflex" unicode="&#xce;" horiz-adv-x="384" 
d="M132 0h120v516h-120v-516zM48 570h63l82 103l81 -103h64l-92 170h-106z" />
    <glyph glyph-name="Idieresis" unicode="&#xcf;" horiz-adv-x="384" 
d="M132 0h120v516h-120v-516zM60 594h100v112h-100v-112zM226 594h100v112h-100v-112z" />
    <glyph glyph-name="Igrave" unicode="&#xcc;" horiz-adv-x="384" 
d="M132 0h120v516h-120v-516zM265 571l-100 169h-108l144 -169h64z" />
    <glyph glyph-name="Ntilde" unicode="&#xd1;" horiz-adv-x="869" 
d="M131 0h108v279q0 11 -1 31.5t-4 50.5q11 -12 21.5 -22l21.5 -20l379 -319h82v516h-108v-271q0 -12 1.5 -34.5l3.5 -54.5q-14 16 -28.5 29.5t-30.5 26.5l-363 304h-82v-516zM582 709h-49q-5 -18 -16 -27t-26 -9q-13 0 -25 3l-43 12q-22 7 -41 7q-75 0 -94 -107h49
q11 33 42 33q13 0 31 -5l41 -12q18 -5 34 -5q40 0 63 26.5t34 83.5z" />
    <glyph glyph-name="Oacute" unicode="&#xd3;" horiz-adv-x="878" 
d="M241 97v327h396v-327h-396zM121 394v-272q0 -36 6.5 -60t21.5 -37.5t39.5 -19t60.5 -5.5h380q36 0 60.5 5.5t39.5 19t21.5 37.5t6.5 60v272q0 36 -6.5 60t-21.5 37.5t-39.5 19t-60.5 5.5h-380q-36 0 -60.5 -5.5t-39.5 -19t-21.5 -37.5t-6.5 -60zM367 571h64l144 169h-108
z" />
    <glyph glyph-name="Ocircumflex" unicode="&#xd4;" horiz-adv-x="878" 
d="M241 97v327h396v-327h-396zM121 394v-272q0 -36 6.5 -60t21.5 -37.5t39.5 -19t60.5 -5.5h380q36 0 60.5 5.5t39.5 19t21.5 37.5t6.5 60v272q0 36 -6.5 60t-21.5 37.5t-39.5 19t-60.5 5.5h-380q-36 0 -60.5 -5.5t-39.5 -19t-21.5 -37.5t-6.5 -60zM294 570h63l82 103
l81 -103h64l-92 170h-106z" />
    <glyph glyph-name="Odieresis" unicode="&#xd6;" horiz-adv-x="878" 
d="M241 97v327h396v-327h-396zM121 394v-272q0 -36 6.5 -60t21.5 -37.5t39.5 -19t60.5 -5.5h380q36 0 60.5 5.5t39.5 19t21.5 37.5t6.5 60v272q0 36 -6.5 60t-21.5 37.5t-39.5 19t-60.5 5.5h-380q-36 0 -60.5 -5.5t-39.5 -19t-21.5 -37.5t-6.5 -60zM306 594h100v112h-100
v-112zM472 594h100v112h-100v-112z" />
    <glyph glyph-name="Ograve" unicode="&#xd2;" horiz-adv-x="878" 
d="M241 97v327h396v-327h-396zM121 394v-272q0 -36 6.5 -60t21.5 -37.5t39.5 -19t60.5 -5.5h380q36 0 60.5 5.5t39.5 19t21.5 37.5t6.5 60v272q0 36 -6.5 60t-21.5 37.5t-39.5 19t-60.5 5.5h-380q-36 0 -60.5 -5.5t-39.5 -19t-21.5 -37.5t-6.5 -60zM511 571l-100 169h-108
l144 -169h64z" />
    <glyph glyph-name="Otilde" unicode="&#xd5;" horiz-adv-x="878" 
d="M241 97v327h396v-327h-396zM121 394v-272q0 -36 6.5 -60t21.5 -37.5t39.5 -19t60.5 -5.5h380q36 0 60.5 5.5t39.5 19t21.5 37.5t6.5 60v272q0 36 -6.5 60t-21.5 37.5t-39.5 19t-60.5 5.5h-380q-36 0 -60.5 -5.5t-39.5 -19t-21.5 -37.5t-6.5 -60zM586 709h-49
q-5 -18 -16 -27t-26 -9q-13 0 -25 3l-43 12q-22 7 -41 7q-75 0 -94 -107h49q11 33 42 33q13 0 31 -5l41 -12q18 -5 34 -5q40 0 63 26.5t34 83.5z" />
    <glyph glyph-name="Scaron" unicode="&#x160;" horiz-adv-x="809" 
d="M579 426v-59l106 25v11q0 33 -7 55t-22.5 35t-39.5 18t-59 5h-293q-36 0 -60.5 -5.5t-39.5 -19t-21.5 -37.5t-6.5 -60v-57q0 -36 6.5 -60t21.5 -37.5t39.5 -19t60.5 -5.5h322v-118h-365v61l-106 -22v-14q0 -36 6.5 -60t21.5 -37.5t40 -19t61 -5.5h319q36 0 61 5.5t40 19
t21.5 37.5t6.5 60v71q0 36 -6.5 60t-21.5 37.5t-40 19t-61 5.5h-322v111h338zM260 740l92 -170h106l92 170h-64l-81 -102l-82 102h-63z" />
    <glyph glyph-name="Uacute" unicode="&#xda;" horiz-adv-x="846" 
d="M252 516h-120v-394q0 -36 6.5 -60t21.5 -37.5t39.5 -19t60.5 -5.5h326q36 0 60.5 5.5t39.5 19t21.5 37.5t6.5 60v394h-120v-419h-342v419zM351 571h64l144 169h-108z" />
    <glyph glyph-name="Udieresis" unicode="&#xdc;" horiz-adv-x="846" 
d="M252 516h-120v-394q0 -36 6.5 -60t21.5 -37.5t39.5 -19t60.5 -5.5h326q36 0 60.5 5.5t39.5 19t21.5 37.5t6.5 60v394h-120v-419h-342v419zM290 594h100v112h-100v-112zM456 594h100v112h-100v-112z" />
    <glyph glyph-name="Ugrave" unicode="&#xd9;" horiz-adv-x="846" 
d="M252 516h-120v-394q0 -36 6.5 -60t21.5 -37.5t39.5 -19t60.5 -5.5h326q36 0 60.5 5.5t39.5 19t21.5 37.5t6.5 60v394h-120v-419h-342v419zM495 571l-100 169h-108l144 -169h64z" />
    <glyph glyph-name="Ydieresis" unicode="&#x178;" horiz-adv-x="672" 
d="M276 0h121v234l267 282h-141l-178 -198l-177 198h-160l268 -285v-231zM203 594h100v112h-100v-112zM369 594h100v112h-100v-112z" />
    <glyph glyph-name="Zcaron" unicode="&#x17d;" horiz-adv-x="682" 
d="M61 0h554v97h-366l366 368v51h-518v-92h325l-361 -368v-56zM196 740l92 -170h106l92 170h-64l-81 -102l-82 102h-63z" />
    <glyph glyph-name="aacute" unicode="&#xe1;" horiz-adv-x="646" 
d="M230 170l95 176l99 -176h-194zM30 0h103l53 93h280l53 -93h116l-255 423h-99zM251 478h64l144 169h-108z" />
    <glyph glyph-name="acircumflex" unicode="&#xe2;" horiz-adv-x="646" 
d="M230 170l95 176l99 -176h-194zM30 0h103l53 93h280l53 -93h116l-255 423h-99zM178 477h63l82 103l81 -103h64l-92 170h-106z" />
    <glyph glyph-name="adieresis" unicode="&#xe4;" horiz-adv-x="646" 
d="M230 170l95 176l99 -176h-194zM30 0h103l53 93h280l53 -93h116l-255 423h-99zM190 501h100v112h-100v-112zM356 501h100v112h-100v-112z" />
    <glyph glyph-name="agrave" unicode="&#xe0;" horiz-adv-x="646" 
d="M230 170l95 176l99 -176h-194zM30 0h103l53 93h280l53 -93h116l-255 423h-99zM395 478l-100 169h-108l144 -169h64z" />
    <glyph glyph-name="aring" unicode="&#xe5;" horiz-adv-x="646" 
d="M230 170l95 176l99 -176h-194zM30 0h103l53 93h280l53 -93h116l-255 423h-99zM198 594q0 -27 9.5 -50t26.5 -40t40 -26.5t49 -9.5t49 9.5t40 26.5t27 40t10 50q0 26 -10 49t-27 40t-40 27t-49 10t-49 -10t-40 -27t-26.5 -40t-9.5 -49zM261 594q0 26 18.5 44t44.5 18
t44 -18t18 -44t-18 -44.5t-44 -18.5t-44.5 18.5t-18.5 44.5z" />
    <glyph glyph-name="atilde" unicode="&#xe3;" horiz-adv-x="646" 
d="M230 170l95 176l99 -176h-194zM30 0h103l53 93h280l53 -93h116l-255 423h-99zM470 616h-49q-5 -18 -16 -27t-26 -9q-13 0 -25 3l-43 12q-22 7 -41 7q-75 0 -94 -107h49q11 33 42 33q13 0 31 -5l41 -12q18 -5 34 -5q40 0 63 26.5t34 83.5z" />
    <glyph glyph-name="ccedilla" unicode="&#xe7;" horiz-adv-x="644" 
d="M465 345v-78l104 15v41q0 30 -5.5 49.5t-18.5 30.5t-34 15.5t-53 4.5h-264q-31 0 -52.5 -4.5t-34 -16t-18 -30.5t-5.5 -49v-223q0 -29 5 -48.5t18 -31t34 -16t53 -4.5h264q32 0 53 4.5t34 16t18.5 30.5t5.5 49v50l-104 21v-90h-278v264h278zM215 -212q42 -11 76 -16
t57 -5q60 0 91 24.5t31 68.5q0 94 -115 94h-8v46h-44v-100q5 0 10 0.5t10 0.5q35 0 52.5 -9t17.5 -30q0 -37 -53 -37q-44 0 -125 21v-58z" />
    <glyph glyph-name="eacute" unicode="&#xe9;" horiz-adv-x="608" 
d="M94 0h459v79h-355v104h204v73h-204v92h350v75h-454v-423zM248 478h64l144 169h-108z" />
    <glyph glyph-name="ecircumflex" unicode="&#xea;" horiz-adv-x="608" 
d="M94 0h459v79h-355v104h204v73h-204v92h350v75h-454v-423zM175 477h63l82 103l81 -103h64l-92 170h-106z" />
    <glyph glyph-name="edieresis" unicode="&#xeb;" horiz-adv-x="608" 
d="M94 0h459v79h-355v104h204v73h-204v92h350v75h-454v-423zM187 501h100v112h-100v-112zM353 501h100v112h-100v-112z" />
    <glyph glyph-name="egrave" unicode="&#xe8;" horiz-adv-x="608" 
d="M94 0h459v79h-355v104h204v73h-204v92h350v75h-454v-423zM392 478l-100 169h-108l144 -169h64z" />
    <glyph glyph-name="iacute" unicode="&#xed;" horiz-adv-x="291" 
d="M94 0h103v423h-103v-423zM75 478h64l144 169h-108z" />
    <glyph glyph-name="icircumflex" unicode="&#xee;" horiz-adv-x="291" 
d="M94 0h103v423h-103v-423zM2 477h63l82 103l81 -103h64l-92 170h-106z" />
    <glyph glyph-name="idieresis" unicode="&#xef;" horiz-adv-x="291" 
d="M94 0h103v423h-103v-423zM14 501h100v112h-100v-112zM180 501h100v112h-100v-112z" />
    <glyph glyph-name="igrave" unicode="&#xec;" horiz-adv-x="291" 
d="M94 0h103v423h-103v-423zM219 478l-100 169h-108l144 -169h64z" />
    <glyph glyph-name="ntilde" unicode="&#xf1;" horiz-adv-x="712" 
d="M94 0h94v285l358 -285h71v423h-93v-281l-359 281h-71v-423zM503 616h-49q-5 -18 -16 -27t-26 -9q-13 0 -25 3l-43 12q-22 7 -41 7q-75 0 -94 -107h49q11 33 42 33q13 0 31 -5l41 -12q18 -5 34 -5q40 0 63 26.5t34 83.5z" />
    <glyph glyph-name="oacute" unicode="&#xf3;" horiz-adv-x="715" 
d="M84 323v-223q0 -30 5.5 -49.5t18 -30.5t34 -15.5t52.5 -4.5h327q31 0 52 4.5t34 15.5t18.5 30.5t5.5 49.5v223q0 30 -5.5 49.5t-18.5 31t-34 15.5t-52 4h-327q-31 0 -52 -4t-34 -15.5t-18.5 -31t-5.5 -49.5zM187 81v264h341v-264h-341zM286 478h64l144 169h-108z" />
    <glyph glyph-name="ocircumflex" unicode="&#xf4;" horiz-adv-x="715" 
d="M84 323v-223q0 -30 5.5 -49.5t18 -30.5t34 -15.5t52.5 -4.5h327q31 0 52 4.5t34 15.5t18.5 30.5t5.5 49.5v223q0 30 -5.5 49.5t-18.5 31t-34 15.5t-52 4h-327q-31 0 -52 -4t-34 -15.5t-18.5 -31t-5.5 -49.5zM187 81v264h341v-264h-341zM213 477h63l82 103l81 -103h64
l-92 170h-106z" />
    <glyph glyph-name="odieresis" unicode="&#xf6;" horiz-adv-x="715" 
d="M84 323v-223q0 -30 5.5 -49.5t18 -30.5t34 -15.5t52.5 -4.5h327q31 0 52 4.5t34 15.5t18.5 30.5t5.5 49.5v223q0 30 -5.5 49.5t-18.5 31t-34 15.5t-52 4h-327q-31 0 -52 -4t-34 -15.5t-18.5 -31t-5.5 -49.5zM187 81v264h341v-264h-341zM225 501h100v112h-100v-112z
M391 501h100v112h-100v-112z" />
    <glyph glyph-name="ograve" unicode="&#xf2;" horiz-adv-x="715" 
d="M84 323v-223q0 -30 5.5 -49.5t18 -30.5t34 -15.5t52.5 -4.5h327q31 0 52 4.5t34 15.5t18.5 30.5t5.5 49.5v223q0 30 -5.5 49.5t-18.5 31t-34 15.5t-52 4h-327q-31 0 -52 -4t-34 -15.5t-18.5 -31t-5.5 -49.5zM187 81v264h341v-264h-341zM430 478l-100 169h-108l144 -169
h64z" />
    <glyph glyph-name="otilde" unicode="&#xf5;" horiz-adv-x="715" 
d="M84 323v-223q0 -30 5.5 -49.5t18 -30.5t34 -15.5t52.5 -4.5h327q31 0 52 4.5t34 15.5t18.5 30.5t5.5 49.5v223q0 30 -5.5 49.5t-18.5 31t-34 15.5t-52 4h-327q-31 0 -52 -4t-34 -15.5t-18.5 -31t-5.5 -49.5zM187 81v264h341v-264h-341zM505 616h-49q-5 -18 -16 -27
t-26 -9q-13 0 -25 3l-43 12q-22 7 -41 7q-75 0 -94 -107h49q11 33 42 33q13 0 31 -5l41 -12q18 -5 34 -5q40 0 63 26.5t34 83.5z" />
    <glyph glyph-name="scaron" unicode="&#x161;" horiz-adv-x="663" 
d="M485 347v-45l89 19v10q0 28 -6.5 45.5t-20 28t-34.5 14.5t-50 4h-251q-31 0 -52.5 -4.5t-34.5 -15.5t-18.5 -30.5t-5.5 -49.5v-47q0 -30 5.5 -49.5t18.5 -30.5t34.5 -15.5t52.5 -4.5h274v-97h-311v50l-92 -17v-12q0 -30 5.5 -49t18.5 -30.5t34.5 -16t52.5 -4.5h275
q32 0 53 4.5t33.5 16t18 30.5t5.5 49v58q0 30 -5.5 49.5t-18 30.5t-33.5 15.5t-53 4.5h-275v89h291zM187 647l92 -170h106l92 170h-64l-81 -102l-82 102h-63z" />
    <glyph glyph-name="uacute" unicode="&#xfa;" horiz-adv-x="689" 
d="M197 423h-103v-323q0 -30 5.5 -49t18 -30.5t34 -16t52.5 -4.5h280q32 0 53 4.5t34 16t18.5 30.5t5.5 49v323h-104v-344h-294v344zM273 478h64l144 169h-108z" />
    <glyph glyph-name="ucircumflex" unicode="&#xfb;" horiz-adv-x="689" 
d="M197 423h-103v-323q0 -30 5.5 -49t18 -30.5t34 -16t52.5 -4.5h280q32 0 53 4.5t34 16t18.5 30.5t5.5 49v323h-104v-344h-294v344zM200 477h63l82 103l81 -103h64l-92 170h-106z" />
    <glyph glyph-name="udieresis" unicode="&#xfc;" horiz-adv-x="689" 
d="M197 423h-103v-323q0 -30 5.5 -49t18 -30.5t34 -16t52.5 -4.5h280q32 0 53 4.5t34 16t18.5 30.5t5.5 49v323h-104v-344h-294v344zM212 501h100v112h-100v-112zM378 501h100v112h-100v-112z" />
    <glyph glyph-name="ugrave" unicode="&#xf9;" horiz-adv-x="689" 
d="M197 423h-103v-323q0 -30 5.5 -49t18 -30.5t34 -16t52.5 -4.5h280q32 0 53 4.5t34 16t18.5 30.5t5.5 49v323h-104v-344h-294v344zM417 478l-100 169h-108l144 -169h64z" />
    <glyph glyph-name="ydieresis" unicode="&#xff;" horiz-adv-x="593" 
d="M254 0h103v192l230 231h-121l-153 -158l-151 158h-139l231 -233v-190zM164 501h100v112h-100v-112zM330 501h100v112h-100v-112z" />
    <glyph glyph-name="zcaron" unicode="&#x17e;" horiz-adv-x="616" 
d="M70 0h477v78h-316l316 303v42h-446v-76h279l-310 -301v-46zM163 647l92 -170h106l92 170h-64l-81 -102l-82 102h-63z" />
    <glyph glyph-name="trademark" unicode="&#x2122;" horiz-adv-x="833" 
d="M339 712h-221v-39h84v-224h53v224h84v39zM470 712h-73v-263h48v217l85 -217h27l81 217v-217h48v263h-73l-69 -188z" />
    <glyph glyph-name="copyright" unicode="&#xa9;" horiz-adv-x="833" 
d="M416 715q-73 0 -137 -26.5t-115 -77.5q-53 -54 -80 -119t-27 -137t27 -136.5t79 -116.5t116.5 -79.5t136.5 -27.5t137.5 28t119.5 80q51 50 77.5 114t26.5 138q0 73 -27 138.5t-78 116.5q-52 52 -117 78.5t-139 26.5zM729 355q0 -65 -23 -120.5t-67 -98.5
q-47 -45 -103.5 -69t-118.5 -24q-63 0 -119 23.5t-101 68.5t-69 101.5t-24 118.5t24 119.5t70 103.5q44 44 99.5 67t119.5 23q130 0 222 -92q44 -44 67 -100.5t23 -120.5zM514 443h72q-3 29 -16 53.5t-35 42t-51.5 27t-64.5 9.5q-43 0 -78.5 -15.5t-61 -43.5t-39.5 -68
t-14 -90q0 -106 51 -164t139 -58q74 0 121.5 39.5t52.5 103.5h-71q-7 -41 -33.5 -63.5t-66.5 -22.5q-54 0 -84.5 42t-30.5 120q0 81 30 123.5t80 42.5q42 0 68 -20t32 -58z" />
    <glyph glyph-name="logicalnot" unicode="&#xac;" horiz-adv-x="833" 
d="M709 420h-585v-68h518v-177h67v245z" />
    <glyph glyph-name="registered" unicode="&#xae;" horiz-adv-x="833" 
d="M416 715q-73 0 -136.5 -25.5t-113.5 -76.5q-53 -54 -81 -120t-28 -138t27 -136t78 -116q52 -53 117 -80.5t137 -27.5q71 0 136.5 27.5t119.5 79.5q51 50 78 114t27 139q0 72 -27 137t-77 116q-52 53 -117.5 80t-139.5 27zM729 352q0 -63 -23 -118.5t-68 -98.5
q-47 -45 -103.5 -68.5t-120.5 -23.5q-60 0 -116.5 24t-101.5 69t-68.5 101t-23.5 118t24.5 119.5t70.5 104.5q43 44 99 66.5t119 22.5q65 0 121.5 -23.5t101.5 -69.5q44 -44 66.5 -100.5t22.5 -122.5zM426 566h-154v-408h77v174h76l83 -174h86l-91 186q45 9 69 37.5t24 72.5
q0 112 -170 112zM412 516q54 0 79.5 -16t25.5 -54q0 -36 -25 -50.5t-78 -14.5h-65v135h63z" />
    <glyph glyph-name="minus" unicode="&#x2212;" horiz-adv-x="833" 
d="M709 333h-585v-69h585v69z" />
    <glyph glyph-name="Eth" unicode="&#xd0;" horiz-adv-x="847" 
d="M132 0h301q69 0 121.5 8.5t90.5 31.5q54 33 84 90.5t30 130.5q0 121 -74.5 188t-220.5 67h-332v-198h-96v-95h96v-223zM252 97v126h192v95h-192v106h213q85 0 127.5 -41t42.5 -120q0 -48 -14 -80t-42.5 -51t-71.5 -27t-100 -8h-155z" />
    <glyph glyph-name="Thorn" unicode="&#xde;" horiz-adv-x="743" 
d="M132 516v-516h118v110h324q60 0 88 23t28 77v115q0 54 -28 77t-88 23h-324v91h-118zM250 336h270q28 0 41 -7.5t13 -33.5v-55q0 -26 -13 -33.5t-41 -7.5h-270v137z" />
    <glyph glyph-name="Yacute" unicode="&#xdd;" horiz-adv-x="672" 
d="M276 0h121v234l267 282h-141l-178 -198l-177 198h-160l268 -285v-231zM264 571h64l144 169h-108z" />
    <glyph glyph-name="brokenbar" unicode="&#xa6;" 
d="M287 699h-73v-370h73v370zM287 199h-73v-370h73v370z" />
    <glyph glyph-name="degree" unicode="&#xb0;" horiz-adv-x="329" 
d="M165 711q-29 0 -54.5 -11t-45 -30t-30.5 -44.5t-11 -55.5q0 -29 11 -54.5t29.5 -44.5t44 -30t55.5 -11t56 11t44.5 30.5t29.5 45t11 53.5q0 29 -11 55t-30 45t-44.5 30t-54.5 11zM259 571q0 -19 -7 -36.5t-19.5 -31t-30 -21t-37.5 -7.5q-40 0 -67.5 28t-27.5 68
q0 20 7.5 37t20.5 30t30.5 20t36.5 7q40 0 67 -27.5t27 -66.5z" />
    <glyph glyph-name="divide" unicode="&#xf7;" horiz-adv-x="833" 
d="M417 540q-25 0 -43 -18t-18 -44t17.5 -43.5t43.5 -17.5t43.5 18t17.5 43q0 26 -18 44t-43 18zM709 332h-585v-68h585v68zM417 179q-25 0 -43 -17.5t-18 -43.5t17.5 -43.5t43.5 -17.5t43.5 18t17.5 43q0 26 -18 43.5t-43 17.5z" />
    <glyph glyph-name="mu" unicode="&#xb5;" horiz-adv-x="562" 
d="M188 523h-88l-155 -732h88l54 259q26 -30 55.5 -43.5t69.5 -13.5q89 0 132 64q9 -34 25 -48.5t48 -14.5q13 0 26 1t27 4l15 70q-5 -1 -9 -1h-7q-19 0 -27 7.5t-8 25.5q0 11 3 27t8 38l76 357h-87l-56 -262q-22 -101 -58 -149t-104 -48q-47 0 -72.5 26t-25.5 75q0 34 7 65
z" />
    <glyph glyph-name="mu" unicode="&#x3bc;" horiz-adv-x="562" 
d="M188 523h-88l-155 -732h88l54 259q26 -30 55.5 -43.5t69.5 -13.5q89 0 132 64q9 -34 25 -48.5t48 -14.5q13 0 26 1t27 4l15 70q-5 -1 -9 -1h-7q-19 0 -27 7.5t-8 25.5q0 11 3 27t8 38l76 357h-87l-56 -262q-22 -101 -58 -149t-104 -48q-47 0 -72.5 26t-25.5 75q0 34 7 65
z" />
    <glyph glyph-name="multiply" unicode="&#xd7;" horiz-adv-x="833" 
d="M420 346l-229 229l-48 -48l229 -229l-229 -229l48 -47l229 228l229 -228l48 47l-229 229l229 229l-48 48z" />
    <glyph glyph-name="onehalf" unicode="&#xbd;" horiz-adv-x="1141" 
d="M223 227h69v291l-138 -18v-39h69v-234zM820 532h-64l-436 -548h65zM742 232v-37l64 -15v60h186v-38l-225 -123q-29 -16 -35 -27t-6 -26v-26h273q42 0 58.5 11t16.5 46v23l-60 15v-43h-189l191 103q23 13 32.5 23t9.5 36v18q0 35 -16.5 46t-58.5 11h-166q-42 0 -58.5 -11
t-16.5 -46z" />
    <glyph glyph-name="onequarter" unicode="&#xbc;" horiz-adv-x="1141" 
d="M223 227h69v291l-138 -18v-39h69v-234zM820 532h-64l-436 -548h65zM951 112h-177l177 129v-129zM951 -3h69v67h79v48h-79v180h-71l-244 -180v-48h246v-67z" />
    <glyph glyph-name="onesuperior" unicode="&#xb9;" horiz-adv-x="510" 
d="M233 206h72v312l-144 -20v-41h72v-251z" />
    <glyph glyph-name="plusminus" unicode="&#xb1;" horiz-adv-x="833" 
d="M451 582h-69v-166h-258v-68h258v-166h69v166h258v68h-258v166zM709 83h-585v-69h585v69z" />
    <glyph glyph-name="threequarters" unicode="&#xbe;" horiz-adv-x="1141" 
d="M144 227h189q47 0 62.5 14t15.5 48v30q0 53 -75 59q35 5 49 17t14 38v26q0 35 -16.5 46t-58.5 11h-175q-42 0 -58.5 -11t-16.5 -46v-18l65 -10v36h160q19 0 25 -5.5t6 -21.5v-14q0 -16 -6 -21.5t-25 -5.5h-97v-47h109q19 0 25.5 -5t6.5 -21v-21q0 -16 -6.5 -21t-25.5 -5
h-175v40l-67 -12v-23q0 -35 16.5 -46t58.5 -11zM820 532h-64l-436 -548h65zM951 112h-177l177 129v-129zM951 -3h69v67h79v48h-79v180h-71l-244 -180v-48h246v-67z" />
    <glyph glyph-name="threesuperior" unicode="&#xb3;" horiz-adv-x="510" 
d="M150 206h198q50 0 66.5 15.5t16.5 51.5v32q0 56 -79 63q37 5 51.5 18t14.5 41v28q0 37 -17 49t-61 12h-184q-44 0 -61 -12t-17 -49v-19l67 -12v39h169q20 0 26 -5.5t6 -22.5v-16q0 -17 -6 -22.5t-26 -5.5h-103v-51h115q20 0 26.5 -5.5t6.5 -22.5v-23q0 -17 -6.5 -22
t-26.5 -5h-183v43l-70 -13v-25q0 -38 16.5 -49.5t60.5 -11.5z" />
    <glyph glyph-name="twosuperior" unicode="&#xb2;" horiz-adv-x="510" 
d="M92 455v-40l68 -16v64h194v-40l-236 -132q-30 -17 -36.5 -29t-6.5 -28v-28h287q44 0 61 11.5t17 49.5v24l-63 16v-45h-198l200 110q12 7 20.5 12.5t13.5 12.5t7.5 16t2.5 22v20q0 37 -17 49t-61 12h-175q-44 0 -61 -12t-17 -49z" />
    <glyph glyph-name="yacute" unicode="&#xfd;" horiz-adv-x="593" 
d="M254 0h103v192l230 231h-121l-153 -158l-151 158h-139l231 -233v-190zM225 478h64l144 169h-108z" />
    <glyph glyph-name="numbersign" unicode="#" horiz-adv-x="769" 
d="M451 712h-81l-79 -222h-162l-25 -71h161l-45 -129h-151l-26 -71h151l-78 -221h81l79 221h126l-79 -221h81l79 221h157l25 71h-157l45 129h148l25 71h-147l78 222h-80l-80 -222h-125zM473 419l-45 -129h-127l45 129h127z" />
    <glyph glyph-name="dollar" unicode="$" horiz-adv-x="773" 
d="M572 442v-71l94 21v23q0 58 -31 79.5t-97 21.5h-103v102h-83v-102h-107q-36 0 -60.5 -5.5t-39.5 -19t-21.5 -37.5t-6.5 -60v-57q0 -36 6.5 -60t21.5 -37.5t39.5 -19t60.5 -5.5h107v-137h-155v69l-100 -17v-22q0 -32 7.5 -53t23 -33t40 -17t57.5 -5h127v-130h83v130h112
q36 0 61 5.5t40 19t21.5 37.5t6.5 60v61q0 36 -6.5 60t-21.5 37.5t-40 19t-61 5.5h-112v137h137zM352 305h-144v137h144v-137zM435 78v137h149v-137h-149z" />
    <glyph glyph-name="percent" unicode="%" horiz-adv-x="799" 
d="M44 380q0 -31 12.5 -59.5t33.5 -49.5t49 -33.5t59 -12.5t58.5 12.5t48.5 33.5t33.5 49.5t12.5 59.5q0 32 -12 59.5t-32.5 48t-48.5 32.5t-60 12t-60 -11.5t-49 -32t-33 -48.5t-12 -60zM112 378q0 35 25 60.5t60 25.5q18 0 33.5 -7t27 -18.5t18.5 -27t7 -33.5
q0 -35 -25 -60t-61 -25q-18 0 -33.5 7t-27 18.5t-18 27t-6.5 32.5zM515 137q0 35 25 60.5t60 25.5q18 0 33.5 -7t27 -18.5t18.5 -27t7 -33.5q0 -35 -25 -60t-61 -25q-18 0 -33.5 7t-27 18.5t-18 27t-6.5 32.5zM447 138q0 -31 12 -59t33 -49t49 -33.5t59 -12.5t59 12.5
t49 33.5t33.5 49t12.5 59q0 32 -12 60t-33 48.5t-49 32.5t-60 12t-60 -12t-48.5 -32.5t-32.5 -48.5t-12 -60zM649 532h-65l-435 -548h65z" />
    <glyph glyph-name="ampersand" unicode="&#x26;" horiz-adv-x="824" 
d="M219 0h184q16 0 28.5 1t23.5 4t22 9t23 17l46 41l85 -72h157l-163 137l119 99l-68 59l-120 -100l-243 202v37h169v-69l93 16v31q0 32 -7 52t-22 31.5t-39.5 16t-59.5 4.5h-104q-33 0 -57 -4.5t-40 -15t-23.5 -28.5t-7.5 -46v-29q0 -23 10.5 -41t33.5 -37l-105 -63
q-17 -10 -29 -19t-20 -19.5t-11.5 -24t-3.5 -33.5v-34q0 -36 6.5 -60t21.5 -37.5t40 -19t61 -5.5zM191 90v88l132 82l155 -129l-48 -41h-239z" />
    <glyph glyph-name="quoteright" unicode="&#x2019;" horiz-adv-x="331" 
d="M201 516h-72q-13 0 -21 -0.5t-12.5 -4t-6 -11t-1.5 -21.5v-62q0 -19 4.5 -28t19.5 -9h17h40l-85 -152h59l99 148v103q0 19 -4.5 28t-19.5 9h-17z" />
    <glyph glyph-name="parenleft" unicode="(" horiz-adv-x="331" 
d="M169 536q-86 -133 -86 -278t86 -278h107q-97 145 -97 278t97 278h-107z" />
    <glyph glyph-name="parenright" unicode=")" horiz-adv-x="331" 
d="M162 536h-107q97 -145 97 -278t-97 -278h107q87 135 87 278t-87 278z" />
    <glyph glyph-name="asterisk" unicode="*" 
d="M250 321l66 -120l58 43l-94 100l134 26l-23 68l-123 -59l15 137h-66l14 -137l-123 59l-22 -68l133 -26l-94 -100l59 -43z" />
    <glyph glyph-name="plus" unicode="+" horiz-adv-x="833" 
d="M451 596h-69v-264h-258v-68h258v-264h69v264h258v68h-258v264z" />
    <glyph glyph-name="comma" unicode="," horiz-adv-x="331" 
d="M201 155h-72q-13 0 -21 -0.5t-12.5 -4t-6 -11t-1.5 -21.5v-62q0 -19 4.5 -28t19.5 -9h17h40l-85 -152h59l99 148v103q0 19 -4.5 28t-19.5 9h-17z" />
    <glyph glyph-name="hyphen" unicode="-" horiz-adv-x="330" 
d="M48 215h233v103h-233v-103z" />
    <glyph glyph-name="period" unicode="." horiz-adv-x="331" 
d="M201 155h-71q-13 0 -21 -0.5t-12.5 -4t-6.5 -11t-2 -21.5v-81q0 -19 4.5 -28t19.5 -9h18h71q13 0 21 0.5t12.5 4t6.5 11t2 21.5v81q0 19 -4.5 28t-19.5 9h-18z" />
    <glyph glyph-name="slash" unicode="/" horiz-adv-x="278" 
d="M-24 -16h64l262 548h-66z" />
    <glyph glyph-name="zero" unicode="0" horiz-adv-x="773" 
d="M94 394v-272q0 -36 5.5 -59.5t19 -37.5t36.5 -19.5t57 -5.5h349q34 0 57 5.5t36.5 19.5t19 37.5t5.5 59.5v272q0 36 -5.5 59.5t-19 37.5t-36.5 19.5t-57 5.5h-349q-34 0 -57 -5.5t-36.5 -19.5t-19 -37.5t-5.5 -59.5zM202 93v335h369v-335h-369z" />
    <glyph glyph-name="one" unicode="1" horiz-adv-x="773" 
d="M354 0h109v520l-219 -33v-69h110v-418z" />
    <glyph glyph-name="two" unicode="2" horiz-adv-x="773" 
d="M140 415v-67l102 -26v106h294v-67l-357 -220q-23 -14 -36 -25.5t-19.5 -22.5t-8 -22t-1.5 -24v-47h434q33 0 55.5 4.5t36.5 15.5t20 30.5t6 50.5v41l-95 27v-76h-300l303 184q18 11 31 20.5t21 21t11.5 26.5t3.5 37v33q0 31 -6 50.5t-20 31t-36.5 15.5t-55.5 4h-265
q-33 0 -55.5 -4t-36.5 -15.5t-20 -31t-6 -50.5z" />
    <glyph glyph-name="three" unicode="3" horiz-adv-x="773" 
d="M228 0h300q37 0 61 6t38.5 19.5t20 34.5t5.5 51v54q0 49 -29 74t-91 31q56 9 78 30.5t22 67.5v47q0 31 -6 50.5t-20 31t-36.5 15.5t-55.5 4h-279q-33 0 -55.5 -4t-36.5 -15.5t-20 -31t-6 -50.5v-32l102 -19v64h255q30 0 39.5 -9.5t9.5 -37.5v-26q0 -28 -9.5 -37.5
t-39.5 -9.5h-155v-84h174q30 0 40 -9.5t10 -37.5v-38q0 -28 -10 -37t-40 -9h-278v72l-106 -22v-42q0 -31 6 -50.5t20 -30.5t36.5 -15.5t55.5 -4.5z" />
    <glyph glyph-name="four" unicode="4" horiz-adv-x="773" 
d="M472 200h-282l282 231v-231zM472 -6h109v120h125v86h-125v322h-113l-387 -322v-86h391v-120z" />
    <glyph glyph-name="five" unicode="5" horiz-adv-x="773" 
d="M130 230q87 11 156 16t123 5q86 0 127.5 -17t41.5 -63q0 -48 -42 -66t-134 -18q-66 0 -133.5 7t-138.5 20l26 -100q42 -10 103.5 -15.5t145.5 -5.5q145 0 214.5 39.5t69.5 133.5q0 175 -256 175q-46 0 -97.5 -3.5t-111.5 -9.5l12 100h360l9 88h-446z" />
    <glyph glyph-name="six" unicode="6" horiz-adv-x="773" 
d="M230 311q15 41 42.5 67t69 40.5t97.5 20t128 5.5h33l-71 83q-9 1 -18.5 1.5t-18.5 0.5q-91 0 -161.5 -20t-119.5 -59t-74.5 -95t-25.5 -128v-68q0 -46 8.5 -76.5t28.5 -49t52.5 -26t80.5 -7.5h218q91 0 134 30t43 96v70q0 39 -12 65t-38 41t-67.5 21t-100.5 6
q-60 0 -117 -5t-111 -13zM223 233q119 12 229 12q65 0 89.5 -12t24.5 -50v-28q0 -17 -4.5 -29t-15 -19.5t-28.5 -10.5t-46 -3h-144q-37 0 -58.5 4.5t-32 16.5t-13.5 33.5t-3 55.5v13q0 8 2 17z" />
    <glyph glyph-name="seven" unicode="7" horiz-adv-x="773" 
d="M278 -9h131l270 442v83h-573v-180l109 -19v111h341z" />
    <glyph glyph-name="eight" unicode="8" horiz-adv-x="773" 
d="M518 224q30 0 39.5 -9.5t9.5 -37.5v-38q0 -28 -9.5 -37t-39.5 -9h-264q-30 0 -39.5 8.5t-9.5 37.5v38q0 28 9.5 37.5t39.5 9.5h264zM507 428q30 0 39.5 -9.5t9.5 -37.5v-26q0 -28 -9.5 -37.5t-39.5 -9.5h-241q-30 0 -40 9.5t-10 37.5v26q0 28 10 37.5t40 9.5h241z
M547 516h-322q-33 0 -55.5 -4t-36.5 -15.5t-20 -31t-6 -50.5v-47q0 -45 22.5 -67t76.5 -33q-56 -6 -83 -30.5t-27 -72.5v-54q0 -30 5.5 -51t20 -34.5t38.5 -19.5t61 -6h330q37 0 61.5 6t38.5 19.5t20 34.5t6 51v54q0 48 -27 72.5t-83 30.5q54 11 76 33t22 67v47
q0 31 -6 50.5t-20 31t-36.5 15.5t-55.5 4z" />
    <glyph glyph-name="nine" unicode="9" horiz-adv-x="773" 
d="M559 284q-67 -7 -124 -10t-104 -3q-33 0 -55 2.5t-35.5 9.5t-19 19.5t-5.5 32.5v29q0 36 20 50t75 14h143q37 0 58.5 -4.5t32.5 -17t14 -34.5t3 -57q0 -13 -3 -31zM553 205q-15 -41 -42.5 -67t-69 -40.5t-98 -20t-128.5 -5.5h-33l71 -83q9 -1 18 -1h19q91 0 162 20
t119.5 58.5t74 94.5t25.5 128v68q0 46 -8.5 76.5t-28.5 49t-52.5 26t-80.5 7.5h-218q-91 0 -133.5 -30t-42.5 -96v-69q0 -39 12 -65t38 -41t67.5 -21t100.5 -6q60 0 117 4.5t111 12.5z" />
    <glyph glyph-name="colon" unicode=":" horiz-adv-x="331" 
d="M201 155h-71q-13 0 -21 -0.5t-12.5 -4t-6.5 -11t-2 -21.5v-81q0 -19 4.5 -28t19.5 -9h18h71q13 0 21 0.5t12.5 4t6.5 11t2 21.5v81q0 19 -4.5 28t-19.5 9h-18zM201 424h-71q-13 0 -21 -0.5t-12.5 -4t-6.5 -11t-2 -21.5v-81q0 -19 4.5 -28t19.5 -9h18h71q13 0 21 0.5
t12.5 4t6.5 11t2 21.5v81q0 19 -4.5 28t-19.5 9h-18z" />
    <glyph glyph-name="semicolon" unicode=";" horiz-adv-x="331" 
d="M201 155h-72q-13 0 -21 -0.5t-12.5 -4t-6 -11t-1.5 -21.5v-62q0 -19 4.5 -28t19.5 -9h17h40l-85 -152h59l99 148v103q0 19 -4.5 28t-19.5 9h-17zM201 424h-72q-13 0 -21 -0.5t-12.5 -4t-6 -11t-1.5 -21.5v-81q0 -19 4.5 -28t19.5 -9h17h72q13 0 21 0.5t12.5 4t6 11
t1.5 21.5v81q0 19 -4.5 28t-19.5 9h-17z" />
    <glyph glyph-name="semicolon" unicode="&#x37e;" horiz-adv-x="331" 
d="M201 155h-72q-13 0 -21 -0.5t-12.5 -4t-6 -11t-1.5 -21.5v-62q0 -19 4.5 -28t19.5 -9h17h40l-85 -152h59l99 148v103q0 19 -4.5 28t-19.5 9h-17zM201 424h-72q-13 0 -21 -0.5t-12.5 -4t-6 -11t-1.5 -21.5v-81q0 -19 4.5 -28t19.5 -9h17h72q13 0 21 0.5t12.5 4t6 11
t1.5 21.5v81q0 19 -4.5 28t-19.5 9h-17z" />
    <glyph glyph-name="less" unicode="&#x3c;" horiz-adv-x="833" 
d="M704 491v75l-575 -236v-63l575 -236v75l-473 192z" />
    <glyph glyph-name="equal" unicode="=" horiz-adv-x="833" 
d="M709 429h-585v-68h585v68zM709 235h-585v-68h585v68z" />
    <glyph glyph-name="greater" unicode="&#x3e;" horiz-adv-x="833" 
d="M704 330l-575 236v-75l474 -193l-474 -192v-75l575 236v63z" />
    <glyph glyph-name="tilde" unicode="&#x2dc;" 
d="M397 616h-49q-5 -18 -16 -27t-26 -9q-13 0 -25 3l-43 12q-22 7 -41 7q-75 0 -94 -107h49q11 33 42 33q13 0 31 -5l41 -12q18 -5 34 -5q40 0 63 26.5t34 83.5z" />
    <glyph glyph-name="macron" unicode="&#xaf;" 
d="M115 521h270v72h-270v-72z" />
    <glyph glyph-name="breve" unicode="&#x2d8;" 
d="M104 634q5 -73 40.5 -108t105.5 -35t104.5 35t39.5 108h-58q-2 -38 -22.5 -54.5t-63.5 -16.5t-64 16.5t-23 54.5h-59z" />
    <glyph glyph-name="dotaccent" unicode="&#x2d9;" 
d="M198 499h105v117h-105v-117z" />
    <glyph glyph-name="dieresis" unicode="&#xa8;" 
d="M117 501h100v112h-100v-112zM283 501h100v112h-100v-112z" />
    <glyph glyph-name="ring" unicode="&#x2da;" 
d="M125 594q0 -27 9.5 -50t26.5 -40t40 -26.5t49 -9.5t49 9.5t40 26.5t27 40t10 50q0 26 -10 49t-27 40t-40 27t-49 10t-49 -10t-40 -27t-26.5 -40t-9.5 -49zM188 594q0 26 18.5 44t44.5 18t44 -18t18 -44t-18 -44.5t-44 -18.5t-44.5 18.5t-18.5 44.5z" />
    <glyph glyph-name="cedilla" unicode="&#xb8;" 
d="M140 -212q42 -11 76 -16t57 -5q60 0 91 24.5t31 68.5q0 94 -115 94h-8v46h-44v-100q5 0 10 0.5t10 0.5q35 0 52.5 -9t17.5 -30q0 -37 -53 -37q-44 0 -125 21v-58z" />
    <glyph glyph-name="hungarumlaut" unicode="&#x2dd;" 
d="M199 478l106 169h-92l-65 -169h51zM276 478h51l124 169h-96z" />
    <glyph glyph-name="ogonek" unicode="&#x2db;" 
d="M299 0h-43q-45 -35 -68 -66.5t-23 -64.5q0 -46 27.5 -67t84.5 -21h47v76h-45q-24 0 -33.5 9t-9.5 30q0 28 15.5 52.5t47.5 51.5z" />
    <glyph glyph-name="caron" unicode="&#x2c7;" 
d="M105 647l92 -170h106l92 170h-64l-81 -102l-82 102h-63z" />
    <glyph glyph-name="emdash" unicode="&#x2014;" horiz-adv-x="1000" 
d="M0 301v-70h1000v70h-1000z" />
    <glyph glyph-name="AE" unicode="&#xc6;" horiz-adv-x="1069" 
d="M980 97h-339v128h239v88h-239v115h334v88h-527l-431 -516h137l105 128h265v-128h456v97zM524 222h-196l178 216h18v-216z" />
    <glyph glyph-name="ordfeminine" unicode="&#xaa;" horiz-adv-x="426" 
d="M152 308l63 106l65 -106h-128zM20 206h68l35 56h185l35 -56h76l-168 254h-66z" />
    <glyph glyph-name="Lslash" unicode="&#x141;" horiz-adv-x="683" 
d="M132 0h507v97h-387v116l158 110v106l-158 -110v197h-120v-269l-78 -54v-104l78 54v-143z" />
    <glyph glyph-name="Oslash" unicode="&#xd8;" horiz-adv-x="878" 
d="M637 424v-327h-275l228 327h47zM121 394v-272q0 -60 18.5 -88t69.5 -32l-90 -130h99l90 128h321q36 0 60.5 5.5t39.5 19t21.5 37.5t6.5 60v272q0 60 -18.5 88t-70.5 33l91 129h-99l-92 -128h-319q-36 0 -60.5 -5.5t-39.5 -19t-21.5 -37.5t-6.5 -60zM241 97v327h275
l-227 -327h-48z" />
    <glyph glyph-name="OE" unicode="&#x152;" horiz-adv-x="1105" 
d="M241 97v331h320v-331h-320zM121 394v-272q0 -36 6.5 -60t21.5 -37.5t39.5 -19t60.5 -5.5h767v97h-338v128h238v88h-238v115h333v88h-762q-36 0 -60.5 -5.5t-39.5 -19t-21.5 -37.5t-6.5 -60z" />
    <glyph glyph-name="ordmasculine" unicode="&#xba;" horiz-adv-x="472" 
d="M55 400v-134q0 -36 15.5 -48t57.5 -12h216q41 0 56.5 12t15.5 48v134q0 36 -15.5 48t-56.5 12h-216q-42 0 -57.5 -12t-15.5 -48zM123 255v158h225v-158h-225z" />
    <glyph glyph-name="ae" unicode="&#xe6;" horiz-adv-x="898" 
d="M454 182h-173l154 177h19v-177zM843 80h-291v103h205v73h-205v92h287v75h-453l-371 -423h117l91 105h231v-105h389v80z" />
    <glyph glyph-name="dotlessi" unicode="&#x131;" horiz-adv-x="291" 
d="M94 0h103v423h-103v-423z" />
    <glyph glyph-name="lslash" unicode="&#x142;" horiz-adv-x="552" 
d="M94 0h436v79h-332v93l143 100v88l-143 -101v164h-104v-225l-67 -47v-86l67 48v-113z" />
    <glyph glyph-name="oslash" unicode="&#xf8;" horiz-adv-x="715" 
d="M187 81v264h236l-191 -264h-45zM86 323v-223q0 -49 16.5 -72t59.5 -26l-78 -107h86l77 105h276q32 0 53 4.5t34 16t18 31t5 48.5v223q0 49 -16 72t-61 27l78 106h-85l-79 -105h-274q-31 0 -52 -4.5t-34 -15.5t-18.5 -30.5t-5.5 -49.5zM529 345v-264h-235l191 264h44z" />
    <glyph glyph-name="oe" unicode="&#x153;" horiz-adv-x="907" 
d="M84 323v-223q0 -30 5 -49t18 -30.5t34 -16t53 -4.5h660v80h-291v103h205v73h-205v92h287v75h-656q-31 0 -52.5 -4.5t-34 -15.5t-18 -30.5t-5.5 -49.5zM187 81v264h276v-264h-276z" />
    <glyph glyph-name="germandbls" unicode="&#xdf;" horiz-adv-x="663" 
d="M485 347v-45l89 19v10q0 28 -6.5 45.5t-20 28t-34.5 14.5t-50 4h-251q-31 0 -52.5 -4.5t-34.5 -15.5t-18.5 -30.5t-5.5 -49.5v-47q0 -30 5.5 -49.5t18.5 -30.5t34.5 -15.5t52.5 -4.5h274v-97h-311v50l-92 -17v-12q0 -30 5.5 -49t18.5 -30.5t34.5 -16t52.5 -4.5h275
q32 0 53 4.5t33.5 16t18 30.5t5.5 49v58q0 30 -5.5 49.5t-18 30.5t-33.5 15.5t-53 4.5h-275v89h291zM1148 347v-45l89 19v10q0 28 -6.5 45.5t-20 28t-34.5 14.5t-50 4h-251q-31 0 -52.5 -4.5t-34.5 -15.5t-18.5 -30.5t-5.5 -49.5v-47q0 -30 5.5 -49.5t18.5 -30.5t34.5 -15.5
t52.5 -4.5h274v-97h-311v50l-92 -17v-12q0 -30 5.5 -49t18.5 -30.5t34.5 -16t52.5 -4.5h275q32 0 53 4.5t33.5 16t18 30.5t5.5 49v58q0 30 -5.5 49.5t-18 30.5t-33.5 15.5t-53 4.5h-275v89h291z" />
    <glyph glyph-name="Aacute" unicode="&#xc1;" horiz-adv-x="771" 
d="M33 0h120l60 113h327l62 -113h135l-296 516h-116zM264 206l115 210l111 -210h-226zM314 571h64l144 169h-108z" />
    <glyph glyph-name="Acircumflex" unicode="&#xc2;" horiz-adv-x="771" 
d="M33 0h120l60 113h327l62 -113h135l-296 516h-116zM264 206l115 210l111 -210h-226zM241 570h63l82 103l81 -103h64l-92 170h-106z" />
    <glyph glyph-name="Adieresis" unicode="&#xc4;" horiz-adv-x="771" 
d="M33 0h120l60 113h327l62 -113h135l-296 516h-116zM264 206l115 210l111 -210h-226zM253 594h100v112h-100v-112zM419 594h100v112h-100v-112z" />
    <glyph glyph-name="Agrave" unicode="&#xc0;" horiz-adv-x="771" 
d="M33 0h120l60 113h327l62 -113h135l-296 516h-116zM264 206l115 210l111 -210h-226zM458 571l-100 169h-108l144 -169h64z" />
    <glyph glyph-name="Aring" unicode="&#xc5;" horiz-adv-x="771" 
d="M33 0h120l60 113h327l62 -113h135l-296 516h-116zM264 206l115 210l111 -210h-226zM257 675q0 -27 9.5 -50t26.5 -40t40 -26.5t49 -9.5t49.5 9.5t40.5 26.5t27 40t10 50q0 26 -10 49t-27 40t-40.5 26.5t-49.5 9.5t-49 -9.5t-40 -26.5t-26.5 -40t-9.5 -49zM321 674
q0 26 18 44.5t44 18.5t44 -18.5t18 -44.5t-18 -44t-44 -18t-44 18t-18 44z" />
    <glyph glyph-name="Atilde" unicode="&#xc3;" horiz-adv-x="771" 
d="M33 0h120l60 113h327l62 -113h135l-296 516h-116zM264 206l115 210l111 -210h-226zM533 709h-49q-5 -18 -16 -27t-26 -9q-13 0 -25 3l-43 12q-22 7 -41 7q-75 0 -94 -107h49q11 33 42 33q13 0 31 -5l41 -12q18 -5 34 -5q40 0 63 26.5t34 83.5z" />
    <glyph glyph-name="Ccedilla" unicode="&#xc7;" horiz-adv-x="801" 
d="M565 424v-98l120 19v49q0 36 -6.5 60t-21.5 37.5t-39.5 19t-60.5 5.5h-308q-36 0 -60.5 -5.5t-39.5 -19t-21.5 -37.5t-6.5 -60v-272q0 -36 6.5 -60t21.5 -37.5t39.5 -19t60.5 -5.5h308q36 0 60.5 5.5t39.5 19t21.5 37.5t6.5 60v61l-120 25v-111h-324v327h324zM291 -212
q42 -11 76 -16t57 -5q60 0 91 24.5t31 68.5q0 94 -115 94h-8v46h-44v-100q5 0 10 0.5t10 0.5q35 0 52.5 -9t17.5 -30q0 -37 -53 -37q-44 0 -125 21v-58z" />
    <glyph glyph-name="Eacute" unicode="&#xc9;" horiz-adv-x="755" 
d="M132 0h533v97h-413v128h238v88h-238v115h408v88h-528v-516zM327 571h64l144 169h-108z" />
    <glyph glyph-name="Ecircumflex" unicode="&#xca;" horiz-adv-x="755" 
d="M132 0h533v97h-413v128h238v88h-238v115h408v88h-528v-516zM254 570h63l82 103l81 -103h64l-92 170h-106z" />
    <glyph glyph-name="Edieresis" unicode="&#xcb;" horiz-adv-x="755" 
d="M132 0h533v97h-413v128h238v88h-238v115h408v88h-528v-516zM266 594h100v112h-100v-112zM432 594h100v112h-100v-112z" />
    <glyph glyph-name="Egrave" unicode="&#xc8;" horiz-adv-x="755" 
d="M132 0h533v97h-413v128h238v88h-238v115h408v88h-528v-516zM471 571l-100 169h-108l144 -169h64z" />
    <glyph glyph-name="Ucircumflex" unicode="&#xdb;" horiz-adv-x="846" 
d="M252 516h-120v-394q0 -36 6.5 -60t21.5 -37.5t39.5 -19t60.5 -5.5h326q36 0 60.5 5.5t39.5 19t21.5 37.5t6.5 60v394h-120v-419h-342v419zM278 570h63l82 103l81 -103h64l-92 170h-106z" />
    <glyph glyph-name="quotedbl" unicode="&#x22;" horiz-adv-x="300" 
d="M112 701h-68v-271h68v271zM256 701h-68v-271h68v271z" />
    <glyph glyph-name="exclam" unicode="!" horiz-adv-x="384" 
d="M151 210h80l37 306h-154zM226 143h-71q-12 0 -20.5 -0.5t-13 -3.5t-6.5 -10t-2 -20v-75q0 -18 4.5 -26t20.5 -8h17h71q25 0 33.5 4.5t8.5 29.5v75q0 18 -4.5 26t-20.5 8h-17z" />
    </font>
</defs>
</svg>
